<svg id="Layer_1" data-name="Layer 1" xmlns="http://www.w3.org/2000/svg" viewBox="0 0 45.67 50.43"><defs><style>.cls-1{fill:#ff99be;}</style></defs><path class="cls-1" d="M36.08,12.76C35.71,5.52,32.14,0,27.58,0,25.18,0,23,1.54,21.49,4.05c-3.75.18-7,3.72-8.62,8.85l-3.3,0-4,3.7L.08,19.07H0V50.43H36.88l.92-.5h0l7.87-4.33V12.69h0Zm4,8.59v21.1l-2.3,3.86v-25Zm.55,21.77,2.13,1.26-4.26,2.34Zm.27-.8V20.76l2.28-3.25V43.67ZM39.74,18.39l-3.3.68H31.8a26.91,26.91,0,0,0-.49-3.82l10.46-.08ZM22.49,5.77c2.75.41,5.11,3.1,6.48,7l-8.25,0A18,18,0,0,1,22.49,5.77Zm7.18,9.49a25.24,25.24,0,0,1,.49,3.81H13.4a25.24,25.24,0,0,1,.48-3.7ZM27.58,1.64c3.53,0,6.51,5,6.86,11.13l-3.79,0c-1.46-4.45-4.09-7.67-7.24-8.52C24.58,2.66,26,1.64,27.58,1.64Zm-7,4.22a20.13,20.13,0,0,0-1.5,7l-4.52,0C15.84,9.15,18,6.51,20.58,5.86Zm-9.64,9.53h1.29a26.94,26.94,0,0,0-.47,3.69H8.23V17.71ZM7.3,18.5l.1-.09v.66H4.46ZM35.33,48H2.47V21.53H35.33Z"/></svg>