<svg id="Layer_1" data-name="Layer 1" xmlns="http://www.w3.org/2000/svg" viewBox="0 0 341.35 56.42"><defs><style>.cls-1{fill:none;}.cls-2{fill:#ff99be;}</style></defs><path class="cls-1" d="M334.84,26.88a26.37,26.37,0,0,1-7.7,3.6,57.14,57.14,0,0,1-16.57,2.18,50.82,50.82,0,0,1-8.35-.74,43.73,43.73,0,0,1-8.14-2.12,27.12,27.12,0,0,1-7.52-4,13.26,13.26,0,0,1-2.82-3l-.14.38a.54.54,0,0,0-.05.11,5,5,0,0,0,.65.87l.28.33c.32.39.62.79.93,1.19a17.55,17.55,0,0,0,1.21,1.52,7.53,7.53,0,0,0,2.53,1.5,12.71,12.71,0,0,1,3,1.69l.44.38a2.36,2.36,0,0,0,.81.56l.13,0a25.86,25.86,0,0,1,4.08,1.11c.43.16.88.3,1.36.44l.83.26a40.5,40.5,0,0,0,11.8,1.69,11.5,11.5,0,0,1,1.53.15l.36,0c.62,0,1.21,0,1.79-.06l.53-.11a12,12,0,0,1,2-.31h1a5.84,5.84,0,0,0,1.86-.18c.16-.06.37-.17.59-.27a6,6,0,0,1,1.49-.59,20,20,0,0,1,3.32-.41c.54,0,1.07-.08,1.58-.14a20.65,20.65,0,0,0,3.34-1.44,6.14,6.14,0,0,1,.58-.54,4.67,4.67,0,0,1,1.45-.77,12.61,12.61,0,0,0,1-.86,3.74,3.74,0,0,1,.52-1.07,3.46,3.46,0,0,1,1.05-1l.15-.11.09-.15.28-.49a5.41,5.41,0,0,1,.67-1.21.7.7,0,0,0,.06-.09l.28-.47a.62.62,0,0,0,0-.13A14,14,0,0,1,334.84,26.88Z"/><path class="cls-1" d="M332.66,12.43A24.37,24.37,0,0,0,328,10.11c-1-.34-2.06-.63-3-1h0A65.3,65.3,0,0,0,311,7c-1.35,0-2.73-.12-4.07-.09l-2,0-2,.14A38.78,38.78,0,0,0,295,8.57a21.91,21.91,0,0,0-7,3.45,11.22,11.22,0,0,0-2.53,2.76,3.72,3.72,0,0,0-.45.8c-.12.28-.28.55-.38.84l-.25.87a6.73,6.73,0,0,0-.13.9c-.33,2.36,1.25,4.7,3.22,6.43a25.83,25.83,0,0,0,6.91,4.22,42.74,42.74,0,0,0,7.88,2.41,49.27,49.27,0,0,0,8.23.93,43.65,43.65,0,0,0,16.28-2.51A25.09,25.09,0,0,0,334,25.76a11.69,11.69,0,0,0,2.61-2.89,7.31,7.31,0,0,0,.76-1.69,6.28,6.28,0,0,0,.23-1.77,6.67,6.67,0,0,0-.33-1.76A18,18,0,0,0,332.66,12.43Z"/><path class="cls-1" d="M332,40.34l0,0c-1.51.43-2.68,1.56-4.13,2.1a26.62,26.62,0,0,1-5.39,1,.26.26,0,0,0-.23.15,62.8,62.8,0,0,1-10.31.78c-13,0-22.56-3.71-27.77-8.67a1.22,1.22,0,0,0-.34-.11l0-.09a.35.35,0,0,0-.67,0,.33.33,0,0,0-.07.13.32.32,0,0,0-.21.23.79.79,0,0,0,0,.34,1.45,1.45,0,0,0,.09.22,1.2,1.2,0,0,0,0,.32c1.1,5.34,10.75,11.67,23,12.51,11.79.81,19.66-.55,24.76-4.27,4.16-3,4.81-6.14,4.84-6.27l.08-.42a7.63,7.63,0,0,1-2.18,1.13A14.26,14.26,0,0,1,332,40.34ZM317.41,46a15,15,0,0,1-5,.44c-1.66-.11-3.3-.35-4.95-.34-.74,0-1.47,0-2.2,0s-1.74-.14-2.6-.2a31.9,31.9,0,0,1-5.38-1c-.73-.19-1.55-.58-2.36-.76l-.2-.09a3.84,3.84,0,0,0-.56-.52,6.44,6.44,0,0,0-1.47-.88c-.49-.73-1.51-.77-2.32-.9l-.25,0c-.08-.08-.14-.17-.22-.25a1.68,1.68,0,0,0-.73-.5,3.94,3.94,0,0,0-.49-.14,15.71,15.71,0,0,1-1.63-.84c-.28-.17-.57-.36-.85-.56a.29.29,0,0,0,0-.28l-.06-.06h0L286,39l-.2-.21,0,0c1,.45,2,1,3,1.53l1.46.67a.3.3,0,0,0,.14.13c.48.23.94.48,1.4.73a6.4,6.4,0,0,0,2,1,.31.31,0,0,0,.19,0l.1.14a3.56,3.56,0,0,0,1.2.35l.41.08c.89.19,1.78.43,2.65.67a27,27,0,0,0,4.18.92,30.41,30.41,0,0,0,3.29.15l1.3,0c1,0,2,.13,3.16.25,2.37.24,5,.5,7.07-.08,1.22-.16,2.44-.25,3.64-.51l.09,0C319.85,45.19,318.66,45.68,317.41,46Z"/><path class="cls-2" d="M317.33,45.29c-2,.58-4.7.32-7.07.08-1.13-.12-2.19-.22-3.16-.25l-1.3,0a30.41,30.41,0,0,1-3.29-.15,27,27,0,0,1-4.18-.92c-.87-.24-1.76-.48-2.65-.67l-.41-.08a3.56,3.56,0,0,1-1.2-.35l-.1-.14a.31.31,0,0,1-.19,0,6.4,6.4,0,0,1-2-1c-.46-.25-.92-.5-1.4-.73a.3.3,0,0,1-.14-.13l-1.46-.67c-1-.5-2-1.08-3-1.53l0,0,.2.21.07.08h0l.06.06a.29.29,0,0,1,0,.28c.28.2.57.39.85.56a15.71,15.71,0,0,0,1.63.84,3.94,3.94,0,0,1,.49.14,1.68,1.68,0,0,1,.73.5c.08.08.14.17.22.25l.25,0c.81.13,1.83.17,2.32.9a6.44,6.44,0,0,1,1.47.88,3.84,3.84,0,0,1,.56.52l.2.09c.81.18,1.63.57,2.36.76a31.9,31.9,0,0,0,5.38,1c.86.06,1.73.16,2.6.2s1.46,0,2.2,0c1.65,0,3.29.23,4.95.34a15,15,0,0,0,5-.44c1.25-.33,2.44-.82,3.65-1.25l-.09,0C319.77,45,318.55,45.13,317.33,45.29Z"/><path class="cls-1" d="M312,36.73c-24-.72-29.17-11-29.21-10.72-.47,3-.44,5.18,1.32,7.19,4.58,5.2,14.31,9.43,27.89,9.43,9.23,0,23-1.88,23.71-12.41C335.7,30,332.24,37.33,312,36.73Z"/><path class="cls-1" d="M334.84,26.88a26.37,26.37,0,0,1-7.7,3.6,57.14,57.14,0,0,1-16.57,2.18,50.82,50.82,0,0,1-8.35-.74,43.73,43.73,0,0,1-8.14-2.12,27.12,27.12,0,0,1-7.52-4,13.26,13.26,0,0,1-2.82-3l-.14.38a.54.54,0,0,0-.05.11,5,5,0,0,0,.65.87l.28.33c.32.39.62.79.93,1.19a17.55,17.55,0,0,0,1.21,1.52,7.53,7.53,0,0,0,2.53,1.5,12.71,12.71,0,0,1,3,1.69l.44.38a2.36,2.36,0,0,0,.81.56l.13,0a25.86,25.86,0,0,1,4.08,1.11c.43.16.88.3,1.36.44l.83.26a40.5,40.5,0,0,0,11.8,1.69,11.5,11.5,0,0,1,1.53.15l.36,0c.62,0,1.21,0,1.79-.06l.53-.11a12,12,0,0,1,2-.31h1a5.84,5.84,0,0,0,1.86-.18c.16-.06.37-.17.59-.27a6,6,0,0,1,1.49-.59,20,20,0,0,1,3.32-.41c.54,0,1.07-.08,1.58-.14a20.65,20.65,0,0,0,3.34-1.44,6.14,6.14,0,0,1,.58-.54,4.67,4.67,0,0,1,1.45-.77,12.61,12.61,0,0,0,1-.86,3.74,3.74,0,0,1,.52-1.07,3.46,3.46,0,0,1,1.05-1l.15-.11.09-.15.28-.49a5.41,5.41,0,0,1,.67-1.21.7.7,0,0,0,.06-.09l.28-.47a.62.62,0,0,0,0-.13A14,14,0,0,1,334.84,26.88Z"/><path class="cls-1" d="M332,40.34l0,0c-1.51.43-2.68,1.56-4.13,2.1a26.62,26.62,0,0,1-5.39,1,.26.26,0,0,0-.23.15,62.8,62.8,0,0,1-10.31.78c-13,0-22.56-3.71-27.77-8.67a1.22,1.22,0,0,0-.34-.11l0-.09a.35.35,0,0,0-.67,0,.33.33,0,0,0-.07.13.32.32,0,0,0-.21.23.79.79,0,0,0,0,.34,1.45,1.45,0,0,0,.09.22,1.2,1.2,0,0,0,0,.32c1.1,5.34,10.75,11.67,23,12.51,11.79.81,19.66-.55,24.76-4.27,4.16-3,4.81-6.14,4.84-6.27l.08-.42a7.63,7.63,0,0,1-2.18,1.13A14.26,14.26,0,0,1,332,40.34Z"/><path class="cls-1" d="M332.66,12.43A24.37,24.37,0,0,0,328,10.11c-1-.34-2.06-.63-3-1h0A65.3,65.3,0,0,0,311,7c-1.35,0-2.73-.12-4.07-.09l-2,0-2,.14A38.78,38.78,0,0,0,295,8.57a21.91,21.91,0,0,0-7,3.45,11.22,11.22,0,0,0-2.53,2.76,4,4,0,0,0-.45.8c-.12.28-.28.55-.38.84l-.25.87a6.73,6.73,0,0,0-.13.9c-.33,2.36,1.25,4.7,3.22,6.43a25.83,25.83,0,0,0,6.91,4.22,42.74,42.74,0,0,0,7.88,2.41,49.27,49.27,0,0,0,8.23.93,43.65,43.65,0,0,0,16.28-2.51A25.09,25.09,0,0,0,334,25.76a11.69,11.69,0,0,0,2.61-2.89,7.31,7.31,0,0,0,.76-1.69,6.28,6.28,0,0,0,.23-1.77,6.67,6.67,0,0,0-.33-1.76A18,18,0,0,0,332.66,12.43Z"/><path class="cls-2" d="M339.51,15.12c-2.29-3.45-8.26-7.5-14.81-9.36h0a52.28,52.28,0,0,0-13.6-2.24c-1.42,0-2.83-.07-4.27,0l-2.15.09-2.15.2a38.21,38.21,0,0,0-8.46,1.91l-.08,0a19.26,19.26,0,0,0-6.36,2.92C282.94,12,279.44,18,280.35,21a7.67,7.67,0,0,0,0,.82.3.3,0,0,1,0,.1,3.55,3.55,0,0,0-.27,2.08,8.63,8.63,0,0,0-.45,2.73,10.26,10.26,0,0,0,.62,3.42,2.82,2.82,0,0,0-.66,2.14c0,.09,0,.17,0,.22a4.16,4.16,0,0,1-.19.42,3.51,3.51,0,0,0-.1,3.54C280,44.27,292,51.79,305.65,52.73Q309,53,312,53c9.27,0,15.95-1.68,20.73-5.17a15.59,15.59,0,0,0,6.09-8c.57-.77.39-3,.47-3.36A2.68,2.68,0,0,0,338,33.2a13.62,13.62,0,0,0,.61-3.74,4.94,4.94,0,0,0,.8-1.37,2.91,2.91,0,0,1,.31-.59c0-.05.06-.11.1-.16a2,2,0,0,0,.46-.41,6.94,6.94,0,0,0,1.09-3.66C341.29,22.05,341.35,17.89,339.51,15.12Zm-4,23.57c0,.13-.68,3.24-4.84,6.27-5.1,3.72-13,5.08-24.76,4.27-12.24-.84-21.89-7.17-23-12.51a1.2,1.2,0,0,1,0-.32,1.45,1.45,0,0,1-.09-.22.79.79,0,0,1,0-.34.32.32,0,0,1,.21-.23.33.33,0,0,1,.07-.13.35.35,0,0,1,.67,0l0,.09a1.22,1.22,0,0,1,.34.11c5.21,5,14.81,8.67,27.77,8.67a62.8,62.8,0,0,0,10.31-.78.26.26,0,0,1,.23-.15,26.62,26.62,0,0,0,5.39-1c1.45-.54,2.62-1.67,4.13-2.1l0,0a14.26,14.26,0,0,0,1.44-.94,7.63,7.63,0,0,0,2.18-1.13ZM312,42.63c-13.58,0-23.31-4.23-27.89-9.43-1.76-2-1.79-4.23-1.32-7.19,0-.27,5.19,10,29.21,10.72,20.26.6,23.72-6.73,23.71-6.51C335,40.75,321.21,42.63,312,42.63Zm25.25-17.79-.28.47a.7.7,0,0,1-.06.09,5.41,5.41,0,0,0-.67,1.21l-.28.49-.09.15-.15.11a3.46,3.46,0,0,0-1.05,1,3.74,3.74,0,0,0-.52,1.07,12.61,12.61,0,0,1-1,.86,4.67,4.67,0,0,0-1.45.77,6.14,6.14,0,0,0-.58.54A20.65,20.65,0,0,1,327.75,33c-.51.06-1,.1-1.58.14a20,20,0,0,0-3.32.41,6,6,0,0,0-1.49.59c-.22.1-.43.21-.59.27a5.84,5.84,0,0,1-1.86.18h-1a12,12,0,0,0-2,.31l-.53.11c-.58,0-1.17,0-1.79.06l-.36,0a11.5,11.5,0,0,0-1.53-.15,40.5,40.5,0,0,1-11.8-1.69l-.83-.26c-.48-.14-.93-.28-1.36-.44a25.86,25.86,0,0,0-4.08-1.11l-.13,0a2.36,2.36,0,0,1-.81-.56l-.44-.38a12.71,12.71,0,0,0-3-1.69,7.53,7.53,0,0,1-2.53-1.5,17.55,17.55,0,0,1-1.21-1.52c-.31-.4-.61-.8-.93-1.19l-.28-.33a5,5,0,0,1-.65-.87.54.54,0,0,1,.05-.11l.14-.38a13.26,13.26,0,0,0,2.82,3,27.12,27.12,0,0,0,7.52,4,43.73,43.73,0,0,0,8.14,2.12,50.82,50.82,0,0,0,8.35.74,57.14,57.14,0,0,0,16.57-2.18,26.37,26.37,0,0,0,7.7-3.6,14,14,0,0,0,2.4-2.17A.62.62,0,0,1,337.23,24.84Zm.11-3.66a7.31,7.31,0,0,1-.76,1.69A11.69,11.69,0,0,1,334,25.76a25.09,25.09,0,0,1-7.11,3.91,43.65,43.65,0,0,1-16.28,2.51,49.27,49.27,0,0,1-8.23-.93,42.74,42.74,0,0,1-7.88-2.41,25.83,25.83,0,0,1-6.91-4.22c-2-1.73-3.55-4.07-3.22-6.43a6.73,6.73,0,0,1,.13-.9l.25-.87c.1-.29.26-.56.38-.84a4,4,0,0,1,.45-.8A11.22,11.22,0,0,1,288.08,12a21.91,21.91,0,0,1,7-3.45,38.78,38.78,0,0,1,7.83-1.46l2-.14,2,0c1.34,0,2.72,0,4.07.09a65.3,65.3,0,0,1,14,2.09h0c1,.36,2,.65,3,1a24.37,24.37,0,0,1,4.69,2.32,18,18,0,0,1,4.58,5.22,6.67,6.67,0,0,1,.33,1.76A6.28,6.28,0,0,1,337.34,21.18Z"/><circle class="cls-2" cx="301.67" cy="14.97" r="0.78"/><path class="cls-2" d="M317.21,17.4a.79.79,0,1,0-.78.78A.78.78,0,0,0,317.21,17.4Z"/><path class="cls-2" d="M317.46,18.27a.78.78,0,1,0,.79.78A.78.78,0,0,0,317.46,18.27Z"/><circle class="cls-2" cx="309.62" cy="19.05" r="0.78"/><circle class="cls-2" cx="319.54" cy="22.32" r="0.78"/><path class="cls-2" d="M295.24,15.23A.78.78,0,1,0,296,16,.78.78,0,0,0,295.24,15.23Z"/><path class="cls-2" d="M299.45,19.41a.78.78,0,1,0,0,1.56.78.78,0,0,0,0-1.56Z"/><circle class="cls-2" cx="326.16" cy="20.71" r="0.78"/><circle class="cls-2" cx="318.5" cy="14.97" r="0.78"/><path class="cls-2" d="M327.2,16.61a.79.79,0,1,0,.79.79A.79.79,0,0,0,327.2,16.61Z"/><circle class="cls-2" cx="322.48" cy="14.97" r="0.78"/><circle class="cls-2" cx="306.34" cy="14.97" r="0.78"/><path class="cls-2" d="M306.09,12.18a.79.79,0,1,0-.79.78A.78.78,0,0,0,306.09,12.18Z"/><path class="cls-2" d="M317,14.72a.79.79,0,1,0-.79-.78A.78.78,0,0,0,317,14.72Z"/><path class="cls-2" d="M16.62,12.77a10,10,0,0,1,5.58,1.66,11.18,11.18,0,0,1,4,4.9,19.46,19.46,0,0,1,1.48,8.11,35.83,35.83,0,0,1-.47,6.08,17.84,17.84,0,0,1-1.15,4.25,10.61,10.61,0,0,1-2.13,2c-1,.77-2.1,1.53-3.27,2.3A33.59,33.59,0,0,1,17.37,44a6.2,6.2,0,0,1-2.17.77,16.09,16.09,0,0,1-1.89-.17c-.9-.11-1.94-.26-3.11-.43v6.62L13,51.83v3.31a18.1,18.1,0,0,1-1.92.41c-.84.13-1.71.27-2.64.4s-1.73.25-2.43.34a13.25,13.25,0,0,1-1.39.13c-.13,0-.39-.18-.77-.54s-.76-.73-1.12-1.11-.54-.67-.54-.85l.41-11.28V18.18L0,17.16V14c.45-.09,1.07-.21,1.86-.34l2.43-.41,2.2-.33a12.09,12.09,0,0,1,1.21-.14,1.7,1.7,0,0,1,.85.51,13.76,13.76,0,0,1,1.08,1.08,1.68,1.68,0,0,1,.51.84v2.3c.72-.58,1.56-1.24,2.53-2s1.85-1.36,2.64-1.92A6.51,6.51,0,0,1,16.62,12.77Zm-1,5.88a4.92,4.92,0,0,0-1.15.41c-.63.27-1.32.58-2.06.94L10.47,21V38.79a24.79,24.79,0,0,0,2.34.84,23.8,23.8,0,0,0,2.63.68,4.31,4.31,0,0,0,1.72.1c.45-.14.84-.61,1.15-1.42a16,16,0,0,0,.75-3.78c.18-1.72.27-4,.27-6.9a18.84,18.84,0,0,0-.65-5.37,9.24,9.24,0,0,0-1.52-3.21C16.58,19,16.06,18.65,15.61,18.65Z"/><path class="cls-2" d="M39,44.73a11.05,11.05,0,0,1-5.51-1.21,7.71,7.71,0,0,1-3.17-3.31,10.28,10.28,0,0,1-1-4.67,15,15,0,0,1,.37-3.24,15.31,15.31,0,0,1,1.11-3.24l6.69,2.83a13.36,13.36,0,0,0-.33,1.52A11,11,0,0,0,37,35.14a5.69,5.69,0,0,0,.58,2.67,2.43,2.43,0,0,0,2.39,1.11,4,4,0,0,0,1.46-.44c.65-.29,1.41-.66,2.26-1.11L46.22,36V39.4c-.95.72-1.95,1.49-3,2.33s-2,1.54-2.77,2.12A4.47,4.47,0,0,1,39,44.73ZM30.74,29.06l14.8-2v3.51l-8.92,2Zm.61-10.88L32.64,13c1.53-.13,3-.21,4.39-.23s2.75,0,4,0a33.69,33.69,0,0,1,3.72.2,5.29,5.29,0,0,1,2.37,1.19,20.46,20.46,0,0,1,2.66,2.5A18.43,18.43,0,0,1,52,19.6a5.15,5.15,0,0,1,.88,2.5V39.33l2.57,1v3.18q-1.48.27-3.18.54l-3,.47a12.89,12.89,0,0,1-1.69.2,1.81,1.81,0,0,1-.78-.47,7.87,7.87,0,0,1-1.08-1.08,1.82,1.82,0,0,1-.51-.88V39.6L45,38.92V23.45a5.06,5.06,0,0,0-.71-3,3.05,3.05,0,0,0-2.46-1,21,21,0,0,0-2.64-.13c-1.08,0-2.24,0-3.48.07l-3.41.13Z"/><path class="cls-2" d="M72,44.73c-.45,0-1.23,0-2.33-.06s-2.34-.12-3.72-.21-2.7-.19-4-.3-2.36-.21-3.21-.31l.13-10.33L63,33.45l1.42,5.27c.72.23,1.54.45,2.46.68s1.79.41,2.6.57a10.65,10.65,0,0,0,1.9.24c.22,0,.46-.17.71-.51a6.08,6.08,0,0,0,.67-1.28A4,4,0,0,0,73.05,37a2.88,2.88,0,0,0-.75-2,9.37,9.37,0,0,0-2.19-1.73c-1-.58-2.22-1.28-3.75-2.09a33.09,33.09,0,0,1-4.46-2.94,8,8,0,0,1-2.3-2.77,7.54,7.54,0,0,1-.68-3.21c0-.59,0-1.19.1-1.82a8.93,8.93,0,0,1,.31-1.63A17.44,17.44,0,0,1,61,17a28,28,0,0,1,2.27-2,16.79,16.79,0,0,1,2.29-1.59,3.85,3.85,0,0,1,1.63-.61c.58,0,1.4,0,2.46,0s2.2.06,3.42.13l3.48.2q1.65.11,2.67.24L79,22.16H74.53l-.47-3.65a6.36,6.36,0,0,0-1.25-.3l-2.2-.37c-.81-.14-1.55-.25-2.23-.34A12.15,12.15,0,0,0,67,17.37a.85.85,0,0,0-.61.27,2.08,2.08,0,0,0-.44.77,4.13,4.13,0,0,0-.16,1.25,3,3,0,0,0,.84,2.13,8.93,8.93,0,0,0,2,1.62L71,24.8c.9.54,1.9,1.13,3,1.76a37.87,37.87,0,0,1,3.24,2.09,11.7,11.7,0,0,1,2.57,2.47,4.72,4.72,0,0,1,1,2.87c0,.5,0,1.08-.07,1.76a7.27,7.27,0,0,1-.4,2,21.52,21.52,0,0,1-1.52,2.06,25.39,25.39,0,0,1-2.23,2.33A18.14,18.14,0,0,1,74.09,44,4,4,0,0,1,72,44.73Z"/><path class="cls-2" d="M91.9,44.73a2.64,2.64,0,0,1-1.45-.6,12.06,12.06,0,0,1-1.73-1.56,11.26,11.26,0,0,1-1.45-1.92A3.52,3.52,0,0,1,86.7,39V17.77H82.1V15l4.6-2L91.63,7.1a4,4,0,0,1,1.28.3L94.6,8v5.47h6.62V18H94.6v18A5.5,5.5,0,0,0,95,38.55a1.27,1.27,0,0,0,1.19.64l5.81.27v4c-.81.14-1.75.28-2.81.44s-2.08.29-3.07.4l-2.67.31C92.63,44.69,92.12,44.73,91.9,44.73Z"/><path class="cls-2" d="M109.67,44.73a1.87,1.87,0,0,1-.88-.5c-.4-.34-.81-.71-1.21-1.12s-.61-.67-.61-.81V18l-2.57-.88V14c1.4-.27,2.57-.49,3.51-.64s1.82-.3,2.6-.41,1.28-.17,1.46-.17a1.93,1.93,0,0,1,.91.54,10.81,10.81,0,0,1,1.22,1.22c.38.45.57.74.57.88l-.07,2.77,1.76-1.89c.58-.63,1.14-1.22,1.66-1.76s1-1,1.31-1.29.61-.47.75-.47a10.93,10.93,0,0,1,2.46.34c1,.23,1.73.43,2.27.61a9,9,0,0,1,.33,1.18,5.93,5.93,0,0,1,.21,1.39A3.48,3.48,0,0,1,125,17.4c-.2.52-.45,1.07-.74,1.66s-.56,1.09-.81,1.52a2.65,2.65,0,0,1-.51.71l-1-.44a11.27,11.27,0,0,0-1.48-.54,4.77,4.77,0,0,0-1.39-.24,2.45,2.45,0,0,0-.67.17l-1.08.4c-.41.16-.81.34-1.22.54s-.81.42-1.22.65v17l3.92,1.09v3.44l-2.9.47-2.64.41-2.33.34A11.84,11.84,0,0,1,109.67,44.73Z"/><path class="cls-2" d="M138.79,56.42c-.13,0-.36-.24-.67-.74a12.94,12.94,0,0,1-.85-1.55,4,4,0,0,1-.37-1L140,44c-.54,0-1,.1-1.49.17a7,7,0,0,1-.88.1,6.17,6.17,0,0,1-1.21-.61L129.54,18l-2.77-.81V13.85l3.44-.54,2.57-.37c.77-.11,1.22-.17,1.35-.17a2.53,2.53,0,0,1,.88.41,10.32,10.32,0,0,1,1.32.94A2.06,2.06,0,0,1,137,15l3.51,15.54,1.15,7h.67l5.14-19.8-4.19-.54V13.38c1.17,0,2.2-.11,3.08-.2s1.77-.17,2.7-.24,1.71-.11,2.36-.13l1.12,0q.27,0,.78.51a7.61,7.61,0,0,1,.94,1.18,1.58,1.58,0,0,1,.37,1l-8.92,28.17L144,51.15l3,1.22-.07,3c-1.48.23-2.73.39-3.75.51s-2,.22-2.8.34S139,56.42,138.79,56.42Z"/><path class="cls-2" d="M173.25,44.73a2.22,2.22,0,0,1-.84-.5,11.64,11.64,0,0,1-1.22-1.12q-.57-.6-.57-.81V5.41l-2.57-1V1.22c1-.14,1.86-.27,2.6-.41l2.3-.4c.79-.14,1.46-.24,2-.31a10.85,10.85,0,0,1,1.11-.1,1.7,1.7,0,0,1,.85.51A12.23,12.23,0,0,1,178,1.59a1.6,1.6,0,0,1,.5.84V39.26l2.51,1v3.18c-1.4.27-2.58.48-3.55.64l-2.67.44A11.67,11.67,0,0,1,173.25,44.73Z"/><path class="cls-2" d="M198.59,44.73q-7.29,0-11.15-3.54t-3.85-11.12a33.16,33.16,0,0,1,.51-5.88A16.52,16.52,0,0,1,185.28,20a13.71,13.71,0,0,1,2.13-2.06,31.47,31.47,0,0,1,3.38-2.4c1.24-.76,2.38-1.42,3.41-2a5.86,5.86,0,0,1,2.23-.81q7.31,0,11,3.75t3.69,10.64a35.18,35.18,0,0,1-.51,6.22,24,24,0,0,1-1.12,4.39,10.63,10.63,0,0,1-2,1.9c-1,.76-2.1,1.54-3.32,2.33a35.37,35.37,0,0,1-3.37,2A6.2,6.2,0,0,1,198.59,44.73Zm.21-4.39c.13,0,.44-.17.91-.37s1.14-.53,2-1c.23-1,.45-2.41.68-4.12a55,55,0,0,0,.34-6.76,21.08,21.08,0,0,0-.68-5.57,8.61,8.61,0,0,0-2.13-3.92,5.08,5.08,0,0,0-3.75-1.46,6.57,6.57,0,0,0-1.08.1,8.66,8.66,0,0,0-1.15.31q-.81.41-1.38,3.45a44.71,44.71,0,0,0-.58,8.1,18.5,18.5,0,0,0,1.05,7,6.57,6.57,0,0,0,2.63,3.34A6.43,6.43,0,0,0,198.8,40.34Z"/><path class="cls-2" d="M224.14,44.8a5.25,5.25,0,0,1-1.09-.67L215.89,18l-2.7-.81V13.85l3.45-.54,2.56-.37c.77-.11,1.22-.17,1.35-.17a2.53,2.53,0,0,1,.88.41,8.84,8.84,0,0,1,1.29.94,2,2,0,0,1,.67.88L227,31l1.08,5.67h.75l4.93-19-4.12-.54V13.38c1.21,0,2.26-.11,3.14-.2s1.78-.17,2.7-.24,1.71-.11,2.37-.13l1.11,0q.27,0,.78.51a6.06,6.06,0,0,1,.91,1.18,2.32,2.32,0,0,1,.41,1l-8.86,28c-1,.18-1.93.33-2.7.44s-1.54.23-2.33.37l-2.06.34C224.56,44.76,224.23,44.8,224.14,44.8Z"/><path class="cls-2" d="M250.29,29.39a14.28,14.28,0,0,0,.94,5.75,6.7,6.7,0,0,0,2.23,2.94,4.43,4.43,0,0,0,2.37.84l1.28,0,2.6-.1,3-.14c1,0,1.82-.09,2.5-.13V41.9c-.72.27-1.63.56-2.74.87s-2.23.62-3.38.92-2.17.54-3.07.74a10.31,10.31,0,0,1-1.89.3,11.39,11.39,0,0,1-10.44-6.42,16.86,16.86,0,0,1-1.66-7.9,36,36,0,0,1,.51-6.22,17.72,17.72,0,0,1,1.18-4.32,12.2,12.2,0,0,1,2.13-2c1-.78,2.13-1.57,3.35-2.36a35.37,35.37,0,0,1,3.37-2,6,6,0,0,1,2.3-.78,13.87,13.87,0,0,1,6.32,1.29A8,8,0,0,1,265,18.82a30.9,30.9,0,0,1,1.25,10l-19.32,2V27.64l11.35-2a17.87,17.87,0,0,0-.71-6,3.2,3.2,0,0,0-3-2.37,8.64,8.64,0,0,0-1.11-.07,2.59,2.59,0,0,0-1.18.27c-.59.32-1.06,1.54-1.42,3.65A51.52,51.52,0,0,0,250.29,29.39Z"/></svg>